<svg xmlns="http://www.w3.org/2000/svg" width="24" height="24" viewBox="0 0 24 24">
  <path id="Path_26" data-name="Path 26" d="M824.311,162.737a2.219,2.219,0,1,1-2.219-2.219A2.222,2.222,0,0,1,824.311,162.737Zm9.723.017a12,12,0,1,1-12-12A12,12,0,0,1,834.034,162.754ZM829,159.895a4.226,4.226,0,0,0-4.227-4.226h-5.792a4.226,4.226,0,0,0-4.226,4.226v5.793a4.226,4.226,0,0,0,4.226,4.226h5.792A4.226,4.226,0,0,0,829,165.688Zm-1.357.033v5.726a2.9,2.9,0,0,1-2.9,2.9h-5.728a2.9,2.9,0,0,1-2.9-2.9v-5.726a2.9,2.9,0,0,1,2.9-2.9h5.728A2.9,2.9,0,0,1,827.647,159.928Zm-2.09,2.809a3.465,3.465,0,1,0-3.465,3.465A3.469,3.469,0,0,0,825.557,162.737Zm1.027-3.7a.825.825,0,1,0-.825.825A.824.824,0,0,0,826.584,159.04Z" transform="translate(-810.034 -150.754)"/>
</svg>
